<?xml version="1.0" encoding="UTF-8" standalone="no"?>
<svg
   viewBox="0 0 800 650"
   style="background-color: #ffffff;"
   version="1.1"
   id="svg23"
   sodipodi:docname="alat.svg"
   inkscape:version="1.4 (e7c3feb1, 2024-10-09)"
   xmlns:inkscape="http://www.inkscape.org/namespaces/inkscape"
   xmlns:sodipodi="http://sodipodi.sourceforge.net/DTD/sodipodi-0.dtd"
   xmlns="http://www.w3.org/2000/svg"
   xmlns:svg="http://www.w3.org/2000/svg">
  <sodipodi:namedview
     id="namedview23"
     pagecolor="#ffffff"
     bordercolor="#000000"
     borderopacity="0.25"
     inkscape:showpageshadow="2"
     inkscape:pageopacity="0.0"
     inkscape:pagecheckerboard="0"
     inkscape:deskcolor="#d1d1d1"
     inkscape:zoom="0.77126973"
     inkscape:cx="453.79714"
     inkscape:cy="387.67241"
     inkscape:window-width="1496"
     inkscape:window-height="831"
     inkscape:window-x="0"
     inkscape:window-y="34"
     inkscape:window-maximized="1"
     inkscape:current-layer="site_global" />
  <defs
     id="defs1">
    <style
       id="style1">
        .bat-standard { fill: #cbd5e1; stroke: #475569; stroke-width: 1.5; }
        .bat-iff { fill: #a5b4fc; stroke: #4338ca; stroke-width: 1.5; } 
        .bat-parking { fill: #bfdbfe; stroke: #2563eb; stroke-width: 1.5; stroke-dasharray: 4 2; }
        
        /* Styles de la Zone d'Essais */
        .zone-bg { fill: #fffbeb; stroke: #d97706; stroke-width: 1; stroke-dasharray: 5 5; opacity: 0.5; }
        .bat-essai { fill: #fcd34d; stroke: #b45309; stroke-width: 1.5; }
        .bat-essai-dark { fill: #fbbf24; stroke: #b45309; stroke-width: 1.5; }
        
        /* Nouveau style pour le contour du site */
        .site-contour { fill: #f8fafc; stroke: #94a3b8; stroke-width: 2; stroke-linejoin: round; }

        /* Texte */
        .label { font-family: Arial, sans-serif; font-size: 10px; fill: #1e293b; font-weight: bold; text-anchor: middle; pointer-events: none; }
        .label-sm { font-size: 8px; }
        .label-white { fill: #ffffff; }
      </style>
  </defs>
  <g
     id="site_global"
     transform="matrix(1.0000407,0,0,0.98069999,-0.0186406,0.95532384)">
    <path
       class="site-contour"
       d="m 403.19405,59.457161 270,-10 21.27361,474.087549 -96.21354,2.08629 -0.68122,-23.34208 -18.09958,-1.02691 -1.51694,24.97061 -304.49899,0.11134 -47.52721,-11.22951 -2.73613,-209.48344 110,-156.17385 z"
       id="path_contour"
       sodipodi:nodetypes="cccccccccccc" />
  </g>
  <g
     id="kelvin">
    <path
       class="bat-standard"
       d="M360,550 L420,550 L420,620 L390,620 L390,640 L360,640 Z"
       id="path1" />
    <text
       x="390"
       y="580"
       class="label"
       id="text1">KELVIN</text>
  </g>
  <g
     id="neel">
    <rect
       class="bat-standard"
       x="277.5791"
       y="472.44254"
       width="40.85363"
       height="28.462326"
       transform="rotate(-15,280,470)"
       id="rect1" />
    <text
       x="295"
       y="490"
       class="label label-sm"
       id="text2">NÉEL</text>
  </g>
  <g
     id="mendeleiev">
    <path
       class="bat-standard"
       d="m 249.50381,399.65641 29.00763,-1.48855 -1.41225,72.67191 h -16.603 z"
       id="path2"
       sodipodi:nodetypes="ccccc" />
    <text
       x="265"
       y="440"
       class="label label-sm"
       transform="rotate(-15 265 440)"
       id="text3">MENDELEÏEV</text>
  </g>
  <g
     id="lavoisier">
    <rect
       class="bat-standard"
       x="240.62886"
       y="331.58249"
       width="31.52339"
       height="60.900192"
       transform="rotate(-15,270,360)"
       id="rect3"
       ry="0" />
    <text
       x="285"
       y="385"
       class="label label-sm"
       id="text4"
       style="white-space:pre;inline-size:46.8292"
       xml:space="preserve"><tspan
         x="285"
         y="385"
         id="tspan2">LAVOISIER</tspan></text>
  </g>
  <g
     id="fourier">
    <path
       class="bat-standard"
       d="M310,230 L350,230 L350,270 L330,270 L330,250 L310,250 Z"
       id="path4" />
    <text
       x="330"
       y="245"
       class="label label-sm"
       id="text5">FOURIER</text>
  </g>
  <g
     id="euler">
    <rect
       class="bat-standard"
       x="360"
       y="220"
       width="65"
       height="130"
       id="rect5" />
    <text
       x="392"
       y="285"
       class="label"
       id="text6">EULER</text>
  </g>
  <g
     id="iff">
    <path
       class="bat-iff"
       d="M330,460 L420,460 L420,510 L350,510 L350,490 L330,490 Z"
       id="path6" />
    <text
       x="380"
       y="490"
       class="label"
       id="text7">iff</text>
  </g>
  <g
     id="cavendish">
    <rect
       class="bat-standard"
       x="340"
       y="400"
       width="90"
       height="20"
       id="rect7" />
    <text
       x="385"
       y="414"
       class="label label-sm"
       id="text8">CAVENDISH</text>
  </g>
  <g
     id="joule"
     transform="matrix(0.985747,0,0,1.6784377,6.4851148,-162.64651)">
    <rect
       class="bat-standard"
       x="440"
       y="240"
       width="30"
       height="80"
       id="rect8" />
    <text
       x="455"
       y="280"
       class="label label-sm"
       transform="rotate(-90,455,280)"
       id="text9">JOULE</text>
  </g>
  <g
     id="johnson"
     transform="matrix(0.99854706,0,0,1.1418637,0.69014453,-70.982722)">
    <path
       class="bat-standard"
       d="m 440,390 h 70 v 90 h -50 v 20 h -20 z"
       id="path9" />
    <text
       x="475"
       y="440"
       class="label"
       id="text10">JOHNSON</text>
  </g>
  <g
     id="ampere">
    <rect
       class="bat-standard"
       x="490"
       y="320"
       width="20"
       height="30"
       id="rect10" />
    <text
       x="500"
       y="340"
       class="label label-sm"
       id="text11">AMP</text>
  </g>
  <g
     id="valier">
    <rect
       class="bat-standard"
       x="490"
       y="260"
       width="20"
       height="30"
       id="rect11" />
    <text
       x="500"
       y="280"
       class="label label-sm"
       id="text12">VAL</text>
  </g>
  <g
     id="janssen">
    <rect
       class="bat-standard"
       x="390"
       y="140"
       width="25"
       height="25"
       id="rect12" />
    <text
       x="402"
       y="155"
       class="label label-sm"
       id="text13">JAN</text>
  </g>
  <g
     id="lamarr">
    <rect
       class="bat-standard"
       x="420"
       y="110"
       width="25"
       height="40"
       id="rect13" />
    <text
       x="432"
       y="135"
       class="label label-sm"
       id="text14">LAM</text>
  </g>
  <g
     id="parking_principal">
    <path
       class="bat-parking"
       d="M 524.74201,304.53379 H 671.4502 l 16.14201,185.79281 -122.95614,2.0487 -1.01858,-70.37122 -35.19488,0 z"
       id="path14"
       inkscape:transform-center-x="-30.122329"
       inkscape:transform-center-y="-2.0497398"
       sodipodi:nodetypes="ccccccc" />
    <text
       x="590"
       y="350"
       class="label"
       style="font-size: 24px; fill: #2563eb;"
       id="text15">P</text>
  </g>
  <g
     id="curie">
    <rect
       class="bat-standard"
       x="530"
       y="440"
       width="25"
       height="20"
       id="rect15" />
    <text
       x="542"
       y="454"
       class="label label-sm"
       id="text16">CURIE</text>
  </g>
  <g
     id="lepine">
    <rect
       class="bat-standard"
       x="530"
       y="580"
       width="40"
       height="25"
       id="rect16" />
    <text
       x="550"
       y="595"
       class="label label-sm"
       id="text17">LELY</text>
  </g>
  <g
     id="zone_essais">
    <path
       class="zone-bg"
       d="M450,80 L650,60 L670,300 L520,300 L520,180 L450,180 Z"
       id="path17" />
    <text
       x="550"
       y="80"
       class="label"
       style="fill:#d97706;"
       id="text18">ZONE D'ESSAIS</text>
    <g
       id="kapitsa">
      <rect
         class="bat-essai"
         x="450"
         y="120"
         width="35"
         height="60"
         id="rect18" />
      <text
         x="467"
         y="145"
         class="label label-sm"
         transform="rotate(-90 467 145)"
         id="text19">KAPITSA</text>
    </g>
    <g
       id="grove">
      <rect
         class="bat-essai"
         x="490"
         y="120"
         width="25"
         height="40"
         id="rect19" />
      <text
         x="502"
         y="140"
         class="label label-sm"
         transform="rotate(-90 502 140)"
         id="text20">GROVE</text>
    </g>
    <g
       id="essai_bat_1">
      <rect
         class="bat-essai-dark"
         x="550"
         y="100"
         width="30"
         height="30"
         id="rect20" />
    </g>
    <g
       id="essai_bat_2">
      <rect
         class="bat-essai-dark"
         x="590"
         y="100"
         width="20"
         height="40"
         id="rect21" />
    </g>
    <g
       id="essai_bat_3">
      <rect
         class="bat-essai-dark"
         x="590"
         y="150"
         width="20"
         height="20"
         id="rect22" />
    </g>
    <g
       id="essai_bat_4">
      <rect
         class="bat-essai-dark"
         x="610"
         y="250"
         width="20"
         height="20"
         id="rect23" />
    </g>
  </g>
</svg>
