<?xml version="1.0" encoding="UTF-8" standalone="no"?>
<svg
   viewBox="0 0 1100 950"
   style="background-color: #f8fafc; font-family: 'Segoe UI', Arial, sans-serif;"
   version="1.1"
   id="svg_alat_master"
   sodipodi:docname="alat_sassenage.svg"
   inkscape:version="1.4 (e7c3feb1, 2024-10-09)"
   xmlns:inkscape="http://www.inkscape.org/namespaces/inkscape"
   xmlns:sodipodi="http://sodipodi.sourceforge.net/DTD/sodipodi-0.dtd"
   xmlns="http://www.w3.org/2000/svg"
   xmlns:svg="http://www.w3.org/2000/svg"
   xmlns:xhtml="http://www.w3.org/1999/xhtml">
  <sodipodi:namedview
     id="namedview27"
     pagecolor="#ffffff"
     bordercolor="#000000"
     borderopacity="0.25"
     inkscape:showpageshadow="2"
     inkscape:pageopacity="0.0"
     inkscape:pagecheckerboard="0"
     inkscape:deskcolor="#d1d1d1"
     inkscape:zoom="1.0125209"
     inkscape:cx="382.70814"
     inkscape:cy="369.37508"
     inkscape:window-width="1496"
     inkscape:window-height="833"
     inkscape:window-x="0"
     inkscape:window-y="34"
     inkscape:window-maximized="1"
     inkscape:current-layer="site_map" />
  <defs
     id="defs4">
    <style
       id="style1">
        .bat-standard { fill: #e2e8f0; stroke: #475569; stroke-width: 2; transition: all 0.5s ease; }
        .bat-iff { fill: #c7d2fe; stroke: #4338ca; stroke-width: 1; opacity: 0.5; } 
        .bat-parking { fill: #dbeafe; stroke: #2563eb; stroke-width: 2; stroke-dasharray: 6 3; }
        .zone-bg { fill: #fffbeb; stroke: #d97706; stroke-width: 2; stroke-dasharray: 5 5; opacity: 0.4; }
        .bat-essai { fill: #fcd34d; stroke: #b45309; stroke-width: 2; }
        .bat-essai-dark { fill: #fbbf24; stroke: #b45309; stroke-width: 1.5; }
        .site-contour { fill: #ffffff; stroke: #cbd5e1; stroke-width: 3; stroke-linejoin: round; }
        .label-bat { font-size: 13px; fill: #1e293b; font-weight: 800; text-anchor: middle; pointer-events: none; }
        .label-sm { font-size: 11px; }
        .data-badge-rect { fill: #ffffff; fill-opacity: 0.9; stroke: #94a3b8; stroke-width: 1px; rx: 4px; }
        .data-text { font-size: 11px; fill: #334155; font-weight: bold; text-anchor: middle; font-family: 'Consolas', monospace; }

        .alarm-critical { 
            animation: pulse-red 0.5s infinite; 
            fill: #fca5a5 !important; 
            stroke: #dc2626 !important; 
            stroke-width: 5px !important; 
        }
        .highlight-wp { 
            stroke: #f97316 !important; 
            stroke-width: 4px !important; 
            stroke-dasharray: 6 3; 
        }
        @keyframes pulse-red {
            0% { fill-opacity: 1; stroke-opacity: 1; }
            50% { fill-opacity: 0.5; stroke-opacity: 0.6; }
            100% { fill-opacity: 1; stroke-opacity: 1; }
        }
    </style>
    <symbol
       id="icon-fire"
       viewBox="0 0 24 24">
      <path
         d="M12 2C12 2 6 7 6 12a6 6 0 0 0 12 0c0-5-6-10-6-10zm0 16a4 4 0 0 1-4-4c0-2 2-4 3-5 1 2 2 3 3 5a4 4 0 0 1-2 4z"
         fill="#dc2626"
         stroke="white"
         stroke-width="1"
         id="path1" />
    </symbol>
    <symbol
       id="icon-gas"
       viewBox="0 0 24 24">
      <rect
         x="1"
         y="4"
         width="22"
         height="16"
         rx="2"
         fill="#f59e0b"
         stroke="#fff"
         stroke-width="1"
         id="rect1" />
      <text
         x="12"
         y="16"
         font-size="10"
         text-anchor="middle"
         font-weight="bold"
         fill="white"
         id="text1">GAZ</text>
    </symbol>
    <symbol
       id="icon-radio"
       viewBox="0 0 24 24">
      <circle
         cx="12"
         cy="12"
         r="10"
         fill="white"
         stroke="#9333ea"
         stroke-width="2"
         id="circle1" />
      <path
         d="M12 2C6.5 2 2 6.5 2 12s4.5 10 10 10 10-4.5 10-10S17.5 2 12 2"
         fill="none"
         stroke="#9333ea"
         stroke-width="2"
         id="path2" />
      <circle
         cx="12"
         cy="12"
         r="5"
         fill="#9333ea"
         id="circle2">
        <animate
           attributeName="opacity"
           values="1;0;1"
           dur="0.5s"
           repeatCount="indefinite" />
      </circle>
    </symbol>
    <symbol
       id="icon-worker"
       viewBox="0 0 24 24">
      <circle
         cx="12"
         cy="12"
         r="12"
         fill="white"
         stroke="#f97316"
         stroke-width="1"
         id="circle3" />
      <path
         d="M16 11c1.66 0 2.99-1.34 2.99-3S17.66 5 16 5c-1.66 0-3 1.34-3 3s1.34 3 3 3zm-8 0c1.66 0 2.99-1.34 2.99-3S9.66 5 8 5C6.34 5 5 6.34 5 8s1.34 3 3 3zm0 2c-2.33 0-7 1.17-7 3.5V19h14v-2.5c0-2.33-4.67-3.5-7-3.5zm8 0c-.29 0-.62.02-.97.05 1.16.84 1.97 1.97 1.97 3.45V19h6v-2.5c0-2.33-4.67-3.5-7-3.5z"
         fill="#f97316"
         id="path3" />
    </symbol>
    <symbol
       id="icon-denied"
       viewBox="0 0 24 24">
      <circle
         cx="12"
         cy="12"
         r="10"
         fill="#fee2e2"
         stroke="#dc2626"
         stroke-width="2"
         id="circle4" />
      <path
         d="M16 8L8 16M8 8l8 8"
         stroke="#dc2626"
         stroke-width="3"
         stroke-linecap="round"
         id="path4" />
    </symbol>
  </defs>
  <rect
     x="0"
     y="0"
     width="1100"
     height="60"
     fill="#fff"
     stroke-bottom="#cbd5e1"
     id="rect4" />
  <g
     transform="translate(20, 15)"
     id="g4">
    <text
       class="text-kpi-label"
       font-size="10"
       fill="#64748b"
       id="text4">SIMULATION</text>
    <text
       id="kpi_time"
       font-size="24"
       font-weight="bold"
       fill="#2563eb"
       y="25">--:--</text>
  </g>
  <g
     transform="translate(150, 15)"
     id="g5">
    <text
       class="text-kpi-label"
       font-size="10"
       fill="#64748b"
       id="text5">POPULATION</text>
    <text
       id="kpi_pop"
       font-size="24"
       font-weight="bold"
       fill="#1e293b"
       y="25">--</text>
  </g>
  <g
     transform="translate(280, 15)"
     id="g6">
    <text
       class="text-kpi-label"
       font-size="10"
       fill="#64748b"
       id="text6">ÉLEC (kW)</text>
    <text
       id="kpi_elec"
       font-size="20"
       font-weight="bold"
       fill="#d97706"
       y="25">--</text>
  </g>
  <g
     transform="translate(400, 15)"
     id="g7">
    <text
       class="text-kpi-label"
       font-size="10"
       fill="#64748b"
       id="text7">EAU (m3)</text>
    <text
       id="kpi_water"
       font-size="20"
       font-weight="bold"
       fill="#0891b2"
       y="25">--</text>
  </g>
  <g
     transform="translate(650, 10)"
     id="g8">
    <rect
       id="bg_global_alarm"
       width="400"
       height="40"
       rx="4"
       fill="#f0fdf4"
       stroke="#16a34a"
       stroke-width="2" />
    <text
       id="kpi_alarms"
       x="200"
       y="26"
       font-size="16"
       font-weight="bold"
       fill="#166534"
       text-anchor="middle">SÉCURITÉ SITE NOMINALE</text>
  </g>
  <g
     transform="translate(10, 80)"
     id="g9">
    <rect
       width="220"
       height="200"
       fill="#fff"
       stroke="#cbd5e1"
       rx="4"
       filter="drop-shadow(2px 2px 2px #ccc)"
       id="rect8" />
    <text
       x="10"
       y="25"
       font-weight="bold"
       fill="#f97316"
       font-size="12"
       id="text8">🛠️ PERMIS TRAVAUX</text>
    <line
       x1="10"
       y1="35"
       x2="210"
       y2="35"
       stroke="#e2e8f0"
       id="line8" />
    <foreignObject
       x="10"
       y="40"
       width="200"
       height="150">
      <xhtml:div
         style="font-size:11px; color:#334155; font-family:Arial; line-height:1.4;">
        <xhtml:ul
           id="wp_list_html"
           style="padding-left:15px; margin:5px 0;">
          <xhtml:li>Chargement...</xhtml:li>
        </xhtml:ul>
      </xhtml:div>
    </foreignObject>
  </g>
  <g
     transform="translate(870, 80)"
     id="g10">
    <rect
       width="220"
       height="250"
       fill="#fff"
       stroke="#cbd5e1"
       rx="4"
       filter="drop-shadow(2px 2px 2px #ccc)"
       id="rect9" />
    <text
       x="10"
       y="25"
       font-weight="bold"
       fill="#dc2626"
       font-size="12"
       id="text9">🚨 ALARMES ACTIVES</text>
    <line
       x1="10"
       y1="35"
       x2="210"
       y2="35"
       stroke="#e2e8f0"
       id="line9" />
    <foreignObject
       x="10"
       y="40"
       width="200"
       height="200">
      <xhtml:div
         style="font-size:11px; font-weight:bold; font-family:Arial; line-height:1.4;">
        <xhtml:ul
           id="alarm_list_html"
           style="padding-left:15px; margin:5px 0; color:#dc2626;">
          <xhtml:li
             style="color:#64748b; font-weight:normal;">Aucune alarme</xhtml:li>
        </xhtml:ul>
      </xhtml:div>
    </foreignObject>
  </g>
  <g
     id="site_map"
     transform="matrix(0.9,0,0,0.9,180,34)">
    <path
       class="site-contour"
       d="m 403.19,59.45 270,-10 21.27,474.08 -96.21,2.08 -0.68,-23.34 -18.09,-1.02 -1.51,24.97 -304.49,0.11 -47.52,-11.22 -2.73,-209.48 110,-156.17 z"
       id="path10" />
    <g
       id="zone_essais">
      <path
         class="zone-bg"
         d="M 450,80 650,60 670,300 H 520 V 180 h -70 z"
         id="path11" />
      <text
         x="550"
         y="80"
         class="label-bat"
         fill="#d97706"
         opacity="0.6"
         id="text11">ZONE D'ESSAIS</text>
    </g>
    <g
       id="grove">
      <rect
         id="shape_grove"
         class="bat-essai"
         x="490"
         y="120"
         width="25"
         height="40" />
      <text
         x="502"
         y="140"
         class="label-bat label-sm"
         transform="rotate(-90,502,140)"
         id="text12">GROVE</text>
      <use id="icon_radio_grove" href="#icon-radio" x="470" y="80" width="24" height="24" display="none" />
      <use id="icon_fire_grove" href="#icon-fire" x="495" y="80" width="24" height="24" display="none" />
      <use id="icon_gas_grove" href="#icon-gas" x="520" y="80" width="24" height="24" display="none" />
      <use id="icon_wp_grove" href="#icon-worker" x="495" y="105" width="24" height="24" display="none" />
      <use id="icon_access_grove" href="#icon-denied" x="520" y="105" width="24" height="24" display="none" />
    </g>
    <g
       id="kapitsa">
      <rect
         id="shape_kapitsa"
         class="bat-essai"
         x="450"
         y="120"
         width="35"
         height="60" />
      <text
         x="467"
         y="150"
         class="label-bat label-sm"
         transform="rotate(-90,467,150)"
         id="text13">KAPITSA</text>
      <use id="icon_radio_kapitsa" href="#icon-radio" x="430" y="80" width="24" height="24" display="none" />
      <use id="icon_fire_kapitsa" href="#icon-fire" x="455" y="80" width="24" height="24" display="none" />
      <use id="icon_gas_kapitsa" href="#icon-gas" x="480" y="80" width="24" height="24" display="none" />
      <use id="icon_wp_kapitsa" href="#icon-worker" x="455" y="105" width="24" height="24" display="none" />
      <use id="icon_access_kapitsa" href="#icon-denied" x="480" y="105" width="24" height="24" display="none" />
    </g>
    <g
       id="neel"
       transform="translate(0.79200124)">
      <rect
         id="shape_neel"
         class="bat-standard"
         x="277"
         y="472"
         width="40"
         height="28"
         transform="rotate(-15,280,470)" />
      <text
         x="286.76"
         y="487.40"
         class="label label-sm"
         id="text14"
         style="-inkscape-font-specification:'Segoe UI, Arial, sans-serif, Bold';font-family:'Segoe UI', Arial, sans-serif;font-weight:bold;font-style:normal;font-stretch:normal;font-variant:normal;font-size:11px;font-variant-ligatures:normal;font-variant-caps:normal;font-variant-numeric:normal;font-variant-east-asian:normal">NÉEL</text>
      <use id="icon_fire_neel" href="#icon-fire" x="270" y="440" width="24" height="24" display="none" />
      <use id="icon_gas_neel" href="#icon-gas" x="295" y="440" width="24" height="24" display="none" />
      <use id="icon_wp_neel" href="#icon-worker" x="270" y="465" width="24" height="24" display="none" />
      <use id="icon_access_neel" href="#icon-denied" x="295" y="465" width="24" height="24" display="none" />
    </g>
    <g
       id="cavendish"
       transform="translate(-8.8638888)">
      <rect
         id="shape_cavendish"
         class="bat-standard"
         x="350"
         y="400"
         width="80"
         height="20" />
      <text
         x="348.02"
         y="394.99"
         class="label label-sm"
         id="text15"
         style="font-style:normal;font-variant:normal;font-weight:bold;font-stretch:normal;font-size:11px;font-family:Georgia;-inkscape-font-specification:'Georgia, Bold';font-variant-ligatures:normal;font-variant-caps:normal;font-variant-numeric:normal;font-variant-east-asian:normal">CAVENDISH</text>
      <use id="icon_fire_cavendish" href="#icon-fire" x="350" y="370" width="24" height="24" display="none" />
      <use id="icon_gas_cavendish" href="#icon-gas" x="375" y="370" width="24" height="24" display="none" />
      <use id="icon_wp_cavendish" href="#icon-worker" x="400" y="370" width="24" height="24" display="none" />
      <use id="icon_access_cavendish" href="#icon-denied" x="425" y="370" width="24" height="24" display="none" />
    </g>
    <g
       id="euler">
      <rect
         id="shape_euler"
         class="bat-standard"
         x="360"
         y="220"
         width="65"
         height="130" />
      <text
         x="392"
         y="250"
         class="label-bat"
         id="text16">EULER</text>
      <g
         transform="translate(367,260)"
         id="g16">
        <rect
           class="data-badge-rect"
           width="50"
           height="16"
           id="rect16"
           x="0"
           y="0" />
        <text
           id="data_euler"
           class="data-text"
           x="25"
           y="12">--°C</text>
      </g>
      <use id="icon_radio_euler" href="#icon-radio" x="340" y="190" width="24" height="24" display="none" />
      <use id="icon_fire_euler" href="#icon-fire" x="365" y="190" width="24" height="24" display="none" />
      <use id="icon_gas_euler" href="#icon-gas" x="390" y="190" width="24" height="24" display="none" />
      <use id="icon_wp_euler" href="#icon-worker" x="415" y="190" width="24" height="24" display="none" />
      <use id="icon_access_euler" href="#icon-denied" x="440" y="190" width="24" height="24" display="none" />
    </g>
    <g
       id="johnson"
       transform="matrix(0.998,0,0,1.14,-2.4284313,-69.478595)">
      <path
         id="shape_johnson"
         class="bat-standard"
         d="m 440,390 h 70 v 90 h -50 v 20 h -20 z" />
      <text
         x="475"
         y="420"
         class="label-bat"
         id="text17">JOHNSON</text>
      <g
         transform="translate(450,430)"
         id="g17">
        <rect
           class="data-badge-rect"
           width="50"
           height="16"
           id="rect17"
           x="0"
           y="0" />
        <text
           id="data_johnson"
           class="data-text"
           x="25"
           y="12">--°C</text>
      </g>
      <use id="icon_fire_johnson" href="#icon-fire" x="440" y="360" width="24" height="24" display="none" />
      <use id="icon_gas_johnson" href="#icon-gas" x="465" y="360" width="24" height="24" display="none" />
      <use id="icon_wp_johnson" href="#icon-worker" x="490" y="360" width="24" height="24" display="none" />
      <use id="icon_access_johnson" href="#icon-denied" x="515" y="360" width="24" height="24" display="none" />
    </g>
    <g id="joule">
      <g transform="matrix(0.98,0,0,1.67,6.4,-162)">
         <rect id="shape_joule" class="bat-standard" x="440" y="240" width="30" height="80" />
         <text x="-336.08" y="385.96" class="label-bat label-sm" transform="matrix(0,-0.848,1.178,0,0,0)">JOULE</text>
      </g>
      <use id="icon_fire_joule" href="#icon-fire" x="420" y="210" width="24" height="24" display="none" />
      <use id="icon_gas_joule" href="#icon-gas" x="445" y="210" width="24" height="24" display="none" />
      <use id="icon_wp_joule" href="#icon-worker" x="420" y="235" width="24" height="24" display="none" />
      <use id="icon_access_joule" href="#icon-denied" x="445" y="235" width="24" height="24" display="none" />
    </g>
    <g
       id="lavoisier">
      <rect
         id="shape_lavoisier"
         class="bat-standard"
         x="240"
         y="331"
         width="32"
         height="61"
         transform="rotate(-15,270,360)" />
      <text
         x="273.8"
         y="357.9"
         class="label-bat label-sm"
         id="text19">LAVOISIER</text>
      <g
         transform="translate(190,365)"
         id="g19">
        <rect
           class="data-badge-rect"
           width="65"
           height="32"
           stroke="#2563eb"
           stroke-width="1.5"
           id="rect19"
           x="0"
           y="0" />
        <text
           id="data_lavoisier_temp"
           class="data-text"
           x="32"
           y="12">--°C</text>
        <text
           id="data_lavoisier_pop"
           class="data-text"
           x="32"
           y="25"
           fill="#2563eb"
           font-weight="800">-- p.</text>
      </g>
      <use id="icon_fire_lavoisier" href="#icon-fire" x="210" y="300" width="24" height="24" display="none" />
      <use id="icon_gas_lavoisier" href="#icon-gas" x="235" y="300" width="24" height="24" display="none" />
      <use id="icon_wp_lavoisier" href="#icon-worker" x="260" y="300" width="24" height="24" display="none" />
      <use id="icon_access_lavoisier" href="#icon-denied" x="235" y="325" width="24" height="24" display="none" />
    </g>
    <g
       id="mendeleiev">
      <path
         id="shape_mendeleiev"
         class="bat-standard"
         d="m 249.5,399 29,-1.5 -1.4,72.6 h -16.6 z" />
      <text
         x="146.57"
         y="473.78"
         class="label-bat label-sm"
         transform="rotate(-15)"
         id="text20">MENDELEÏEV</text>
      <use id="icon_fire_mendeleiev" href="#icon-fire" x="220" y="370" width="24" height="24" display="none" />
      <use id="icon_gas_mendeleiev" href="#icon-gas" x="245" y="370" width="24" height="24" display="none" />
      <use id="icon_wp_mendeleiev" href="#icon-worker" x="270" y="370" width="24" height="24" display="none" />
      <use id="icon_access_mendeleiev" href="#icon-denied" x="295" y="370" width="24" height="24" display="none" />
    </g>
    <g
       id="lamarr">
      <rect
         id="shape_lamarr"
         class="bat-standard"
         x="420"
         y="110"
         width="25"
         height="40" />
      <text
         x="432"
         y="100"
         class="label-bat label-sm"
         id="text21">LAMARR</text>
      <use id="icon_fire_lamarr" href="#icon-fire" x="410" y="80" width="24" height="24" display="none" />
      <use id="icon_gas_lamarr" href="#icon-gas" x="435" y="80" width="24" height="24" display="none" />
      <use id="icon_wp_lamarr" href="#icon-worker" x="410" y="105" width="24" height="24" display="none" />
      <use id="icon_access_lamarr" href="#icon-denied" x="435" y="105" width="24" height="24" display="none" />
    </g>
    <g
       id="curie">
      <rect
         id="shape_curie"
         class="bat-standard"
         x="530"
         y="440"
         width="25"
         height="20" />
      <text
         x="542"
         y="480"
         class="label-bat label-sm"
         id="text22">CURIE</text>
      <use id="icon_fire_curie" href="#icon-fire" x="520" y="410" width="24" height="24" display="none" />
      <use id="icon_gas_curie" href="#icon-gas" x="545" y="410" width="24" height="24" display="none" />
      <use id="icon_wp_curie" href="#icon-worker" x="520" y="435" width="24" height="24" display="none" />
      <use id="icon_access_curie" href="#icon-denied" x="545" y="435" width="24" height="24" display="none" />
    </g>
    <g
       id="fourier">
      <path
         id="shape_fourier"
         class="bat-standard"
         d="m 310,230 h 40 v 40 h -20 v -20 h -20 z" />
      <text
         x="330"
         y="245"
         class="label-bat label-sm"
         id="text23">FOURIER</text>
      <use id="icon_fire_fourier" href="#icon-fire" x="300" y="200" width="24" height="24" display="none" />
      <use id="icon_gas_fourier" href="#icon-gas" x="325" y="200" width="24" height="24" display="none" />
      <use id="icon_wp_fourier" href="#icon-worker" x="350" y="200" width="24" height="24" display="none" />
      <use id="icon_access_fourier" href="#icon-denied" x="375" y="200" width="24" height="24" display="none" />
    </g>
    <g
       id="valier">
      <rect
         id="shape_valier"
         class="bat-standard"
         x="490"
         y="260"
         width="20"
         height="30" />
      <text
         x="500"
         y="250"
         class="label-bat label-sm"
         id="text24">VALIER</text>
      <use id="icon_fire_valier" href="#icon-fire" x="480" y="230" width="24" height="24" display="none" />
      <use id="icon_gas_valier" href="#icon-gas" x="505" y="230" width="24" height="24" display="none" />
      <use id="icon_wp_valier" href="#icon-worker" x="480" y="255" width="24" height="24" display="none" />
      <use id="icon_access_valier" href="#icon-denied" x="505" y="255" width="24" height="24" display="none" />
    </g>
    <g
       id="kelvin"
       transform="translate(0,21.221032)">
      <path
         id="shape_kelvin"
         class="bat-standard"
         d="m 360,550 h 60 v 70 h -30 v 20 h -30 z" />
      <text
         x="390"
         y="590"
         class="label-bat"
         id="text25">KELVIN</text>
      <use id="icon_fire_kelvin" href="#icon-fire" x="360" y="520" width="24" height="24" display="none" />
      <use id="icon_gas_kelvin" href="#icon-gas" x="385" y="520" width="24" height="24" display="none" />
      <use id="icon_wp_kelvin" href="#icon-worker" x="410" y="520" width="24" height="24" display="none" />
      <use id="icon_access_kelvin" href="#icon-denied" x="435" y="520" width="24" height="24" display="none" />
    </g>
    <g
       id="parking_principal"
       transform="translate(0,7.7777798)">
      <path
         class="bat-parking"
         d="m 524,304 h 147 l 16,185 -122,2 -1,-70 h -35 z"
         id="shape_parking_p" />
      <text
         x="590"
         y="400"
         class="label-bat"
         style="font-size:32px;fill:#2563eb"
         id="text26">P</text>
      <text
         id="kpi_parking_val"
         x="642.27209"
         y="450.59204"
         class="label-bat"
         style="font-size:18px;fill:#1e3a8a">--%</text>
      <use id="icon_fire_parking_p" href="#icon-fire" x="580" y="320" width="24" height="24" display="none" />
      <use id="icon_gas_parking_p" href="#icon-gas" x="605" y="320" width="24" height="24" display="none" />
      <use id="icon_wp_parking_p" href="#icon-worker" x="630" y="320" width="24" height="24" display="none" />
      <use id="icon_access_parking_p" href="#icon-denied" x="655" y="320" width="24" height="24" display="none" />
    </g>
    <g
       id="iff">
      <path
         id="shape_iff"
         class="bat-iff"
         d="m 330,460 h 90 v 50 h -70 v -20 h -20 z" />
      <text
         x="380"
         y="490"
         class="label-bat"
         opacity="0.5"
         id="text27">iff</text>
      <use id="icon_fire_iff" href="#icon-fire" x="330" y="430" width="24" height="24" display="none" />
      <use id="icon_gas_iff" href="#icon-gas" x="355" y="430" width="24" height="24" display="none" />
      <use id="icon_wp_iff" href="#icon-worker" x="380" y="430" width="24" height="24" display="none" />
      <use id="icon_access_iff" href="#icon-denied" x="405" y="430" width="24" height="24" display="none" />
    </g>
  </g>
</svg>