<?xml version="1.0" encoding="UTF-8" standalone="no"?>
<svg
   viewBox="0 0 1600 900"
   style="background-color: #0d1117; font-family: -apple-system, BlinkMacSystemFont, 'Segoe UI', Roboto, sans-serif;"
   version="1.1"
   id="svg48"
   sodipodi:docname="hydrochem_dashboard.svg"
   inkscape:version="1.4 (e7c3feb1, 2024-10-09)"
   xmlns:inkscape="http://www.inkscape.org/namespaces/inkscape"
   xmlns:sodipodi="http://sodipodi.sourceforge.net/DTD/sodipodi-0.dtd"
   xmlns="http://www.w3.org/2000/svg"
   xmlns:svg="http://www.w3.org/2000/svg">
  <sodipodi:namedview
     id="namedview48"
     pagecolor="#ffffff"
     bordercolor="#000000"
     borderopacity="0.25"
     inkscape:showpageshadow="2"
     inkscape:pageopacity="0.0"
     inkscape:pagecheckerboard="0"
     inkscape:deskcolor="#d1d1d1"
     inkscape:zoom="0.83123828"
     inkscape:cx="21.654441"
     inkscape:cy="339.85442"
     inkscape:window-width="1496"
     inkscape:window-height="824"
     inkscape:window-x="0"
     inkscape:window-y="34"
     inkscape:window-maximized="1"
     inkscape:current-layer="svg48" />
  <defs
     id="defs2">
    <style
       id="style1">
            .bg-panel { fill: #161b22; stroke: #30363d; stroke-width: 2; rx: 8; }
            .bg-subpanel { fill: #21262d; stroke: #30363d; stroke-width: 1; rx: 4; }
            .header-bg { fill: #21262d; }
            .text-title { fill: #c9d1d9; font-size: 18px; font-weight: bold; }
            .text-subtitle { fill: #8b949e; font-size: 14px; font-weight: bold; text-transform: uppercase; }
            .text-label { fill: #8b949e; font-size: 12px; }
            .text-value { fill: #58a6ff; font-size: 22px; font-weight: bold; }
            .text-value-small { fill: #58a6ff; font-size: 16px; font-weight: bold; }
            .text-unit { fill: #8b949e; font-size: 12px; font-weight: normal; }
            
            /* Status Colors */
            .fill-nominal { fill: #3fb950; }
            .fill-warning { fill: #d29922; }
            .fill-critical { fill: #f85149; }
            .fill-idle { fill: #8b949e; }

            .text-nominal { fill: #3fb950; }
            .text-warning { fill: #d29922; }
            .text-critical { fill: #f85149; }
            .text-idle { fill: #8b949e; }

            /* Piping and Web */
            .pipe { fill: none; stroke: #484f58; stroke-width: 6; stroke-linejoin: round; stroke-linecap: round; }
            .pipe-flow { fill: none; stroke: #58a6ff; stroke-width: 2; stroke-dasharray: 8, 8; }
            .web { fill: none; stroke: #f0f6fc; stroke-width: 4; stroke-linejoin: round; }
            
            /* Equipment Shapes */
            .tank { fill: #30363d; stroke: #8b949e; stroke-width: 2; rx: 4; }
            .liquid { fill: #1f6feb; opacity: 0.6; }
            .oven-zone { fill: #21262d; stroke: #8b949e; stroke-width: 1; }
            .heating-coil { fill: none; stroke: #f85149; stroke-width: 3; stroke-linecap: round; }
            .roll { fill: #c9d1d9; stroke: #8b949e; stroke-width: 3; }
            .roll-core { fill: #161b22; }
        </style>
    <linearGradient
       id="grad-oven"
       x1="0%"
       y1="0%"
       x2="0%"
       y2="100%">
      <stop
         offset="0%"
         stop-color="#f85149"
         stop-opacity="0.2"
         id="stop1" />
      <stop
         offset="100%"
         stop-color="#21262d"
         stop-opacity="0.8"
         id="stop2" />
    </linearGradient>
  </defs>
  <rect
     x="0"
     y="0"
     width="1600"
     height="60"
     class="header-bg"
     id="rect2" />
  <line
     x1="0"
     y1="60"
     x2="1600"
     y2="60"
     stroke="#30363d"
     stroke-width="2"
     id="line2" />
  <path
     d="M 20 15 L 40 15 L 40 45 L 60 15 L 80 15 L 45 60 L 80 105 L 60 105 L 40 75 L 40 105 L 20 105 Z"
     fill="#007bff"
     transform="scale(0.4) translate(40, 20)"
     id="path2" />
  <text
     x="70"
     y="38"
     class="text-title"
     style="font-size: 24px;"
     id="text2">Hydrochem Frankfurt | Line 1 - PEM Membrane Production</text>
  <rect
     x="20"
     y="80"
     width="860"
     height="370"
     class="bg-panel"
     id="rect3" />
  <text
     x="40"
     y="110"
     class="text-subtitle"
     id="text3">Preparation &amp; Coating (Ink Mixing)</text>
  <rect
     x="80"
     y="200"
     width="140"
     height="180"
     class="tank"
     rx="20"
     id="rect4" />
  <rect
     x="82"
     y="250"
     width="136"
     height="128"
     class="liquid"
     rx="18"
     id="svg-tank-level" />
  <text
     x="150"
     y="400"
     class="text-label"
     text-anchor="middle"
     id="text4">Main Reactor</text>
  <rect
     x="135"
     y="140"
     width="30"
     height="40"
     fill="#8b949e"
     rx="4"
     id="rect5" />
  <line
     x1="150"
     y1="180"
     x2="150"
     y2="340"
     stroke="#8b949e"
     stroke-width="4"
     id="line5" />
  <g
     id="anim-agitator"
     transform="translate(150, 340)">
    <path
       d="M -32.781853,-7.593951 33.984878,8.7969755 M -31.578829,10 33.984878,-7.593951"
       stroke="#c9d1d9"
       stroke-width="6"
       stroke-linecap="round"
       id="path5"
       sodipodi:nodetypes="cccc" />
    <circle
       cx="0"
       cy="0"
       r="6"
       fill="#161b22"
       id="circle5" />
  </g>
  <rect
     x="40"
     y="130"
     width="120"
     height="50"
     class="bg-subpanel"
     id="rect6" />
  <text
     x="50"
     y="150"
     class="text-label"
     id="text6">Agitator Speed</text>
  <text
     x="50"
     y="170"
     class="text-value-small"
     id="val-agitator">1450</text>
  <text
     x="95"
     y="170"
     class="text-unit"
     id="text7"> RPM</text>
  <rect
     x="250"
     y="130"
     width="130"
     height="50"
     class="bg-subpanel"
     id="rect7" />
  <text
     x="260"
     y="150"
     class="text-label"
     id="text8">Injection Pump</text>
  <text
     x="260"
     y="170"
     class="text-value-small"
     id="val-pump">0.0</text>
  <text
     x="305"
     y="170"
     class="text-unit"
     id="text9"> Hz</text>
  <rect
     x="400"
     y="130"
     width="140"
     height="50"
     class="bg-subpanel"
     id="rect9" />
  <text
     x="410"
     y="150"
     class="text-label"
     id="text10">Coriolis Flow</text>
  <text
     x="410"
     y="170"
     class="text-value-small"
     id="val-flow">0.0</text>
  <text
     x="455"
     y="170"
     class="text-unit"
     id="text11"> kg/min</text>
  <rect
     x="560"
     y="130"
     width="120"
     height="50"
     class="bg-subpanel"
     id="rect11" />
  <text
     x="570"
     y="150"
     class="text-label"
     id="text12">Die Lip Gap</text>
  <text
     x="570"
     y="170"
     class="text-value-small"
     id="val-gap">250</text>
  <text
     x="610"
     y="170"
     class="text-unit"
     id="text13"> µm</text>
  <path
     d="M 220 360 L 320 360 L 320 300 L 500 300 L 500 360 L 600 360"
     class="pipe"
     id="path13" />
  <path
     d="M 220 360 L 320 360 L 320 300 L 500 300 L 500 360 L 600 360"
     class="pipe-flow"
     id="anim-flow" />
  <circle
     cx="320"
     cy="300"
     r="25"
     fill="#21262d"
     stroke="#8b949e"
     stroke-width="4"
     id="circle13" />
  <polygon
     points="305,290 335,300 305,310"
     fill="#8b949e"
     id="polygon13" />
  <circle
     cx="430"
     cy="300"
     r="20"
     fill="#21262d"
     stroke="#8b949e"
     stroke-width="3"
     id="circle14" />
  <text
     x="430"
     y="304"
     fill="#8b949e"
     font-size="14"
     font-weight="bold"
     text-anchor="middle"
     id="text14">FM</text>
  <circle
     cx="780"
     cy="220"
     r="40"
     class="roll anim-roll"
     id="circle15" />
  <circle
     cx="780"
     cy="220"
     r="10"
     class="roll-core"
     id="circle16" />
  <text
     x="780"
     y="160"
     class="text-label"
     text-anchor="middle"
     id="text16">PTFE Backing</text>
  <polygon
     points="570,350 630,350 610,400 590,400"
     fill="#8b949e"
     stroke="#c9d1d9"
     stroke-width="2"
     id="polygon16" />
  <text
     x="600"
     y="420"
     class="text-label"
     text-anchor="middle"
     id="text17">Slot-Die Head</text>
  <rect
     x="20"
     y="470"
     width="1120"
     height="410"
     class="bg-panel"
     id="rect17" />
  <text
     x="40"
     y="500"
     class="text-subtitle"
     id="text18">Drying Zone (Oven &amp; Exhaust)</text>
  <text
     x="1040.9028"
     y="599.13611"
     class="text-unit"
     id="text23">Pa</text>
  <g
     transform="translate(41.848617,610.16453)"
     id="g32">
    <rect
       x="0"
       y="0"
       width="150"
       height="140"
       class="oven-zone"
       fill="url(#grad-oven)"
       id="rect23" />
    <text
       x="75"
       y="30"
       class="text-title"
       text-anchor="middle"
       id="text24">Z1</text>
    <path
       d="m 30,100 q 20,-20 45,0 25,20 45,0"
       class="heating-coil"
       id="path24" />
    <text
       x="75"
       y="160"
       class="text-value-small"
       text-anchor="middle"
       id="val-z1">180.0<tspan
   class="text-unit"
   id="tspan24">°C</tspan></text>
    <rect
       x="150"
       y="0"
       width="150"
       height="140"
       class="oven-zone"
       fill="url(#grad-oven)"
       id="rect24" />
    <text
       x="225"
       y="30"
       class="text-title"
       text-anchor="middle"
       id="text25">Z2</text>
    <path
       d="m 180,100 q 20,-20 45,0 25,20 45,0"
       class="heating-coil"
       id="path25" />
    <text
       x="225"
       y="160"
       class="text-value-small"
       text-anchor="middle"
       id="val-z2">180.0<tspan
   class="text-unit"
   id="tspan25">°C</tspan></text>
    <rect
       x="300"
       y="0"
       width="150"
       height="140"
       class="oven-zone"
       fill="url(#grad-oven)"
       id="rect25" />
    <text
       x="375"
       y="30"
       class="text-title"
       text-anchor="middle"
       id="text26">Z3</text>
    <path
       d="m 330,100 q 20,-20 45,0 25,20 45,0"
       class="heating-coil"
       id="path26" />
    <text
       x="375"
       y="160"
       class="text-value-small"
       text-anchor="middle"
       id="val-z3">180.0<tspan
   class="text-unit"
   id="tspan26">°C</tspan></text>
    <rect
       x="450"
       y="0"
       width="150"
       height="140"
       class="oven-zone"
       fill="url(#grad-oven)"
       id="rect26" />
    <text
       x="525"
       y="30"
       class="text-title"
       text-anchor="middle"
       id="text27">Z4</text>
    <path
       d="m 480,100 q 20,-20 45,0 25,20 45,0"
       class="heating-coil"
       id="path27" />
    <text
       x="525"
       y="160"
       class="text-value-small"
       text-anchor="middle"
       id="val-z4">180.0<tspan
   class="text-unit"
   id="tspan27">°C</tspan></text>
    <rect
       x="600"
       y="0"
       width="150"
       height="140"
       class="oven-zone"
       fill="url(#grad-oven)"
       id="rect27" />
    <text
       x="675"
       y="30"
       class="text-title"
       text-anchor="middle"
       id="text28">Z5</text>
    <path
       d="m 630,100 q 20,-20 45,0 25,20 45,0"
       class="heating-coil"
       id="path28" />
    <text
       x="675"
       y="160"
       class="text-value-small"
       text-anchor="middle"
       id="val-z5">180.0<tspan
   class="text-unit"
   id="tspan28">°C</tspan></text>
    <rect
       x="750"
       y="0"
       width="150"
       height="140"
       class="oven-zone"
       fill="url(#grad-oven)"
       id="rect28" />
    <text
       x="825"
       y="30"
       class="text-title"
       text-anchor="middle"
       id="text29">Z6</text>
    <path
       d="m 780,100 q 20,-20 45,0 25,20 45,0"
       class="heating-coil"
       id="path29" />
    <text
       x="825"
       y="160"
       class="text-value-small"
       text-anchor="middle"
       id="val-z6">180.0<tspan
   class="text-unit"
   id="tspan29">°C</tspan></text>
    <path
       d="m 900,70 h 80 V 0"
       fill="none"
       stroke="#484f58"
       stroke-width="40"
       stroke-linejoin="round"
       id="path30" />
    <g
       id="anim-exhaust-fan"
       transform="translate(980,20)">
      <circle
         cx="0"
         cy="0"
         r="18"
         fill="#161b22"
         stroke="#8b949e"
         stroke-width="2"
         id="circle30" />
      <path
         d="M 0,-15 5,0 0,15 -5,0 Z"
         fill="#8b949e"
         id="path31" />
      <path
         d="M -15,0 0,5 15,0 0,-5 Z"
         fill="#8b949e"
         id="path32" />
    </g>
    <text
       x="960"
       y="-30"
       class="text-label"
       text-anchor="middle"
       id="text32">VOC Exhaust</text>
    <text
       x="962.40607"
       y="-11.203025"
       class="text-value-small"
       text-anchor="middle"
       id="val-exhaust">0.0<tspan
   class="text-unit"
   id="tspan32">Hz</tspan></text>
  </g>
  <rect
     x="40"
     y="780"
     width="200"
     height="70"
     class="bg-subpanel"
     id="rect32"
     inkscape:label="rect32" />
  <text
     x="55"
     y="805"
     class="text-label"
     id="text33">Total Oven Power</text>
  <text
     x="55"
     y="835"
     class="text-value"
     id="val-power">0.0</text>
  <text
     x="120"
     y="835"
     class="text-unit"
     id="text34"> kW</text>
  <rect
     x="900"
     y="80"
     width="680"
     height="150"
     class="bg-panel"
     id="rect34" />
  <text
     x="920"
     y="110"
     class="text-subtitle"
     id="text35">Status &amp; KPIs</text>
  <text
     x="920"
     y="150"
     class="text-label"
     id="text36">Active Work Order</text>
  <text
     x="920"
     y="180"
     class="text-value"
     style="font-size: 28px;"
     id="val-wo">WAITING</text>
  <text
     x="1250"
     y="150"
     class="text-label"
     id="text37">Line Status</text>
  <text
     x="1250"
     y="180"
     class="text-value text-idle"
     style="font-size: 28px;"
     id="val-status">IDLE</text>
  <circle
     cx="1230"
     cy="170"
     r="10"
     class="fill-idle"
     id="ind-status" />
  <rect
     x="1160"
     y="270"
     width="420"
     height="250"
     class="bg-panel"
     id="rect37" />
  <text
     x="1180"
     y="300"
     class="text-subtitle"
     id="text38">Quality Inspection (QMS)</text>
  <rect
     x="1180"
     y="320"
     width="380"
     height="180"
     class="bg-subpanel"
     id="rect38" />
  <text
     x="1200"
     y="350"
     class="text-label"
     id="text39">Avg Thickness</text>
  <text
     x="1200"
     y="380"
     class="text-value"
     style="font-size: 32px;"
     id="val-thickness">0.00</text>
  <text
     x="1300"
     y="380"
     class="text-unit"
     id="text40"> µm</text>
  <text
     x="1380"
     y="350"
     class="text-label"
     id="text41">Micro-Fissures</text>
  <text
     x="1380"
     y="380"
     class="text-value"
     style="font-size: 32px;"
     id="val-fissures">0.0</text>
  <text
     x="1460"
     y="380"
     class="text-unit"
     id="text42"> / m²</text>
  <rect
     x="1200"
     y="420"
     width="40"
     height="60"
     fill="#30363d"
     rx="4"
     stroke="#8b949e"
     stroke-width="2"
     id="rect42" />
  <polygon
     points="1240,430 1520,410 1520,490 1240,470"
     fill="#f85149"
     opacity="0.15"
     id="scanner-beam" />
  <text
     x="1200"
     y="410"
     class="text-label"
     font-size="10"
     id="text43">Laser AOI</text>
  <rect
     x="1160"
     y="540"
     width="420"
     height="340"
     class="bg-panel"
     id="rect43" />
  <path
     d="M 740,220 H 600 v 180 l -0.084,138.36917 -546.982902,7.19679 -1.027664,28.08117 969.462366,-12.44185 -1.5235,-109.47523 459.5553,-3.15991 c 1.821,99.03798 1.9758,198.09422 2.555,297.14479"
     class="web"
     id="anim-web"
     style="font-family:'-apple-system', BlinkMacSystemFont, 'Segoe UI', Roboto, sans-serif;display:inline"
     sodipodi:nodetypes="cccccccccc" />
  <text
     x="1180"
     y="570"
     class="text-subtitle"
     id="text44">Web Handling &amp; Winding</text>
  <circle
     cx="1400"
     cy="740"
     r="80"
     class="roll anim-roll"
     id="circle44" />
  <circle
     cx="1400"
     cy="740"
     r="20"
     class="roll-core"
     id="circle45" />
  <path
     d="M 1320 740 L 1400 740 M 1400 660 L 1400 820"
     stroke="#8b949e"
     stroke-width="2"
     stroke-dasharray="4,4"
     id="path45" />
  <rect
     x="1175.1879"
     y="600"
     width="163.15765"
     height="71.203026"
     class="bg-subpanel"
     id="rect45" />
  <text
     x="1190"
     y="625"
     class="text-label"
     id="text45">Line Speed</text>
  <text
     x="1190"
     y="655"
     class="text-value"
     id="val-speed">0.0</text>
  <text
     x="1260"
     y="655"
     class="text-unit"
     id="text46"> m/min</text>
  <g
     id="g1">
    <rect
       x="1175.1879"
       y="694.81213"
       width="135.4881"
       height="68.796974"
       class="bg-subpanel"
       id="rect46" />
    <text
       x="1190"
       y="715"
       class="text-label"
       id="text47">Web Tension</text>
    <text
       x="1190"
       y="745"
       class="text-value"
       id="val-tension">0.0</text>
    <text
       x="1260"
       y="745"
       class="text-unit"
       id="text48"> N</text>
  </g>
</svg>
